<svg xmlns="http://www.w3.org/2000/svg" width="84" height="28" viewBox="0 0 84 28">
    <g fill="none" fill-rule="evenodd">
        <g>
            <g>
                <g>
                    <path d="M0 0L82.86 0 82.86 26.417 0 26.417z" transform="translate(-288 -32) translate(227 26) translate(61.856 6.833)"/>
                    <path fill="#FFF" d="M41.024.466l-5.535 25.55h-6.695L34.33.466h6.694zm28.17 16.5L72.72 7.37l2.029 9.598h-5.554zm7.475 9.05h6.19L77.453.466h-5.714c-1.287 0-2.372.738-2.85 1.876L58.841 26.016h7.032l1.395-3.816h8.587l.814 3.816zm-17.478-8.34c.03-6.743-9.446-7.115-9.381-10.127.022-.917.907-1.894 2.836-2.143.963-.121 3.607-.221 6.61 1.145l1.17-5.422C58.813.555 56.743 0 54.161 0c-6.62 0-11.275 3.472-11.31 8.447-.044 3.677 3.326 5.726 5.855 6.953 2.613 1.252 3.49 2.054 3.475 3.174-.015 1.714-2.082 2.47-4.004 2.502-3.37.051-5.32-.9-6.878-1.615l-1.215 5.598c1.569.711 4.456 1.326 7.445 1.358 7.036 0 11.64-3.43 11.661-8.74zM31.458.467l-10.851 25.55H13.53L8.192 5.628C7.87 4.375 7.588 3.912 6.6 3.383 4.99 2.52 2.335 1.71 0 1.208L.154.466h11.393c1.453 0 2.757.956 3.09 2.605l2.82 14.784L24.421.466h7.037z" transform="translate(-288 -32) translate(227 26) translate(61.856 6.833)"/>
                </g>
            </g>
        </g>
    </g>
</svg>
