<svg xmlns="http://www.w3.org/2000/svg" width="90" height="30" viewBox="0 0 90 30">
    <g fill="none" fill-rule="evenodd">
        <g fill="#1A1F72">
            <g>
                <g>
                    <path d="M44.559.51l-6.012 27.912h-7.271L37.288.51h7.27zm30.598 18.025l3.83-10.484 2.203 10.484h-6.033zm8.12 9.887H90L84.126.51h-6.207c-1.397 0-2.575.806-3.094 2.048L63.91 28.422h7.638l1.516-4.17h9.327l.884 4.17zM64.291 19.31c.031-7.367-10.26-7.773-10.19-11.064.024-1.002.985-2.07 3.08-2.34 1.047-.133 3.918-.243 7.18 1.25l1.27-5.924C63.882.607 61.633 0 58.83 0c-7.19 0-12.246 3.793-12.285 9.228-.048 4.017 3.613 6.255 6.36 7.596 2.838 1.368 3.79 2.243 3.774 3.467-.016 1.873-2.261 2.7-4.349 2.734-3.66.056-5.778-.983-7.47-1.765l-1.32 6.116c1.704.777 4.84 1.448 8.087 1.484 7.643 0 12.642-3.747 12.666-9.55zM34.169.51L22.383 28.422h-7.686L8.898 6.148c-.35-1.368-.656-1.874-1.73-2.452C5.421 2.753 2.536 1.87 0 1.32L.167.51h12.375c1.578 0 2.995 1.045 3.356 2.846l3.064 16.15L26.525.51h7.644z" transform="translate(-40 -1678) translate(40 1677) translate(0 1)"/>
                </g>
            </g>
        </g>
    </g>
</svg>
