<svg xmlns="http://www.w3.org/2000/svg" width="145" height="41" viewBox="0 0 145 41">
    <g fill="none" fill-rule="evenodd">
        <g>
            <g>
                <g>
                    <path fill="#F7B600" d="M49.078 6.983c-1.326-2.474-3.349-4.429-5.85-5.654C40.615.049 37.706-.316 34.815.276c-2.74.56-5.416 2.012-7.742 4.195l-.523.491v7.53l3.441-3.614c3.353-3.523 7.456-4.597 10.974-2.873 3.242 1.589 4.992 5.042 4.457 8.798-.376 2.638-2.68 5.995-6.85 9.976-3.634 3.471-7.83 6.594-10.608 8.661l-.635.473c-.046.034-.076.058-.096.074l-.683.53v6.058l2.527-1.613.432-.272.038-.024c.308-.192.55-.343.861-.575l.631-.47c2.918-2.17 7.326-5.452 11.222-9.202 5.025-4.837 7.732-9.05 8.278-12.877.429-3.015-.076-5.975-1.461-8.559" transform="translate(-227 -26) translate(227 26)"/>
                    <g>
                        <path d="M0 0.187L24.043 0.187 24.043 40.575 0 40.575z" transform="translate(-227 -26) translate(227 26)"/>
                        <path fill="#FFF" d="M9.684 6.165c3.505-1.716 7.592-.647 10.932 2.859l3.427 3.598V5.127l-.52-.489C21.206 2.464 18.539 1.02 15.81.462c-2.88-.59-5.778-.227-8.38 1.048-2.492 1.22-4.507 3.166-5.828 5.628C.223 9.71-.28 12.656.148 15.658c.544 3.81 3.24 8.002 8.245 12.817 3.881 3.733 8.273 6.999 11.18 9.16l.627.467c.31.23.552.382.858.573l.038.023c.121.076.261.163.431.272l2.516 1.605v-6.03l-.68-.528c-.02-.016-.05-.04-.096-.074l-.632-.47c-2.767-2.057-6.947-5.166-10.567-8.621-4.153-3.963-6.448-7.304-6.823-9.93-.533-3.738 1.21-7.176 4.44-8.757" transform="translate(-227 -26) translate(227 26)"/>
                    </g>
                </g>
                <g>
                    <path d="M0 0L82.86 0 82.86 26.417 0 26.417z" transform="translate(-227 -26) translate(227 26) translate(61.856 6.833)"/>
                    <path fill="#FFF" d="M41.024.466l-5.535 25.55h-6.695L34.33.466h6.694zm28.17 16.5L72.72 7.37l2.029 9.598h-5.554zm7.475 9.05h6.19L77.453.466h-5.714c-1.287 0-2.372.738-2.85 1.876L58.841 26.016h7.032l1.395-3.816h8.587l.814 3.816zm-17.478-8.34c.03-6.743-9.446-7.115-9.381-10.127.022-.917.907-1.894 2.836-2.143.963-.121 3.607-.221 6.61 1.145l1.17-5.422C58.813.555 56.743 0 54.161 0c-6.62 0-11.275 3.472-11.31 8.447-.044 3.677 3.326 5.726 5.855 6.953 2.613 1.252 3.49 2.054 3.475 3.174-.015 1.714-2.082 2.47-4.004 2.502-3.37.051-5.32-.9-6.878-1.615l-1.215 5.598c1.569.711 4.456 1.326 7.445 1.358 7.036 0 11.64-3.43 11.661-8.74zM31.458.467l-10.851 25.55H13.53L8.192 5.628C7.87 4.375 7.588 3.912 6.6 3.383 4.99 2.52 2.335 1.71 0 1.208L.154.466h11.393c1.453 0 2.757.956 3.09 2.605l2.82 14.784L24.421.466h7.037z" transform="translate(-227 -26) translate(227 26) translate(61.856 6.833)"/>
                </g>
            </g>
        </g>
    </g>
</svg>
