<svg xmlns="http://www.w3.org/2000/svg" width="248" height="43" viewBox="0 0 248 43">
    <g fill="none" fill-rule="evenodd">
        <g>
            <g transform="translate(-176 -1569) translate(176 1569)">
                <rect width="242" height="42" x=".5" y=".5" fill="#FFF" stroke="#D8D8D8" rx="6"/>
                <rect width="203" height="43" x="45" fill="#F9BF20" rx="6"/>
                <text fill="#1A1F72" font-family="OpenSans-Regular, Open Sans" font-size="16">
                    <tspan x="94" y="28">Enviar convite</tspan>
                </text>
                <g fill="#1A1F72">
                    <path d="M2.596 19.912c1.111-.292 2.134-.548 3.146-.83.286-.079.508-.038.762.107 1.918 1.108 3.974 1.52 6.17 1.167 5.06-.811 8.523-5.542 7.75-10.582-.804-5.226-5.7-8.73-10.876-7.78C3.287 3.142-.037 10.123 3.077 15.65c.344.612.44 1.116.208 1.77-.277.782-.448 1.6-.689 2.492M0 22.469c.126-.484.235-.908.349-1.327.37-1.353.749-2.697 1.099-4.05.052-.202.03-.47-.065-.65-3.43-6.537.109-14.446 7.303-16.135 6.533-1.532 12.408 2.877 13.48 8.776 1.116 6.151-2.908 11.994-9.011 13.063-2.426.419-4.745.064-6.959-1.016-.198-.095-.476-.122-.685-.072C2.559 21.798.597 22.352 0 22.47" transform="translate(12 10)"/>
                    <path d="M14.707 17.385c-2.62-.095-6.793-2.164-9.653-7.128-1.015-1.766-.867-3.778.62-5.158.503-.47 1.132-.354 1.723-.255.146.02.297.244.37.408.381.866.757 1.733 1.088 2.621.175.47-.148.909-.828 1.69-.216.246-.258.478-.089.76 1.098 1.865 2.634 3.211 4.656 4 .297.115.519.043.706-.192 1.072-1.305 1.18-1.687 1.744-1.42 2.712 1.3 2.922 1.352 2.936 1.657.091 2.286-2.004 3.11-3.273 3.017" transform="translate(12 10)"/>
                </g>
            </g>
        </g>
    </g>
</svg>
