<svg xmlns="http://www.w3.org/2000/svg" width="446" height="27" viewBox="0 0 446 27">
    <g fill="none" fill-rule="evenodd">
        <g>
            <g>
                <path stroke="#D8D8D8" d="M0 13L197 13M248 13L446 13.306" transform="translate(-77 -677) translate(77 677)"/>
                <g>
                    <path fill="#F7B600" d="M31.694 4.572c-.856-1.62-2.162-2.9-3.777-3.702C26.229.032 24.35-.207 22.483.18c-1.769.368-3.498 1.318-5 2.747l-.337.322v4.93l2.222-2.367c2.165-2.306 4.815-3.009 7.087-1.88 2.094 1.04 3.224 3.3 2.878 5.76-.243 1.727-1.731 3.925-4.423 6.531-2.347 2.273-5.057 4.318-6.85 5.67l-.41.31-.063.049-.44.347v3.966l1.63-1.056.28-.178.024-.016c.2-.125.356-.225.557-.376l.407-.308c1.884-1.421 4.731-3.57 7.247-6.025 3.245-3.167 4.993-5.924 5.345-8.43.278-1.974-.048-3.912-.943-5.604" transform="translate(-77 -677) translate(77 677) translate(206)"/>
                    <g>
                        <path d="M0 0.123L15.527 0.123 15.527 26.565 0 26.565z" transform="translate(-77 -677) translate(77 677) translate(206)"/>
                        <path fill="#1A1F72" d="M6.254 4.036c2.264-1.123 4.903-.423 7.06 1.872l2.213 2.356V3.356l-.336-.32C13.695 1.614 11.973.669 10.21.303 8.35-.083 6.478.154 4.797.99c-1.608.798-2.91 2.072-3.763 3.684-.89 1.685-1.216 3.613-.94 5.578.352 2.495 2.093 5.24 5.325 8.392 2.506 2.444 5.343 4.582 7.22 5.997l.405.306c.2.151.356.25.554.375l.025.015.278.178 1.625 1.051v-3.948l-.44-.345c-.012-.011-.031-.027-.061-.049l-.409-.308c-1.786-1.347-4.486-3.382-6.824-5.644-2.681-2.595-4.164-4.782-4.406-6.501-.344-2.448.781-4.699 2.867-5.734" transform="translate(-77 -677) translate(77 677) translate(206)"/>
                    </g>
                </g>
            </g>
        </g>
    </g>
</svg>
